# xmcd CD database file
#
# Track frame offsets:
#	150
#	12786
#	35324
#	60192
#	72434
#	89611
#	102828
#	117226
#	136451
#	156627
#
# Disc length: 2398 seconds
#
# Revision: 0
# Processed by: cddbd v1.5.1PL0 Copyright (c) Steve Scherf et al.
# Submitted via: CDex 1.51
#
DISCID=82095c0a
DTITLE=Count Basie - Basie's Beat
DYEAR=1965
DGENRE=Jazz
TTITLE0=It's only a paper moon
TTITLE1=Squeeze me
TTITLE2=St.Louis blues
TTITLE3=I got rhythm
TTITLE4=Frankie and Johnny
TTITLE5=Bone's blues
TTITLE6=St.Thomas
TTITLE7=Hey Jim
TTITLE8=Happy house
TTITLE9=makin' whoopie
EXTD=YEAR: 1965
EXTT0=
EXTT1=
EXTT2=
EXTT3=
EXTT4=
EXTT5=
EXTT6=
EXTT7=
EXTT8=
EXTT9=
PLAYORDER=
